<svg xmlns="http://www.w3.org/2000/svg" version="1.1" viewBox="0 0 100 115" role="img" aria-label="Ninja Swap"><g><path fill="currentColor" d="M46.434,61.727c-0.688,0-1.362-0.338-1.764-0.958c-0.631-0.975-0.354-2.274,0.62-2.904l11.908-7.717   c0.972-0.631,2.275-0.355,2.905,0.621c0.631,0.973,0.354,2.274-0.62,2.905l-11.909,7.716   C47.222,61.617,46.825,61.727,46.434,61.727z"/></g><g><path fill="currentColor" d="M29.091,61.727c-0.479,0-0.962-0.163-1.356-0.498l-9.472-8.017c-0.886-0.748-0.996-2.074-0.246-2.959   c0.75-0.885,2.075-0.995,2.959-0.246l9.472,8.017c0.886,0.749,0.996,2.074,0.246,2.96C30.28,61.474,29.688,61.727,29.091,61.727z"/></g><g><path class="ninja-face" fill="none" d="M59.685,46.331H19.929c-5.466,0-9.897,4.431-9.897,9.897c0,5.466,4.431,9.897,9.897,9.897h39.756   c5.466,0,9.896-4.432,9.896-9.897C69.581,50.761,65.15,46.331,59.685,46.331z"/><path class="ninja-logo ninja-head" fill="currentColor" d="M95.657,2.784c-2.513-1.967-6.144-1.524-8.107,0.989l-9.322,11.912l-2.671-2.214c-0.668-0.555-1.663-0.462-2.217,0.207   c-0.556,0.67-0.463,1.663,0.207,2.218l2.738,2.271l-6.433,8.221c-6.95-5.567-15.763-8.904-25.359-8.904   c-22.424,0-40.603,18.179-40.603,40.603c0,22.424,18.179,40.603,40.603,40.603c22.424,0,40.604-18.179,40.604-40.603   c0-8.611-2.689-16.589-7.261-23.159l7.345-9.385l2.718,2.254c0.293,0.244,0.649,0.363,1.004,0.363c0.452,0,0.903-0.194,1.214-0.57   c0.556-0.669,0.461-1.662-0.208-2.218l-2.786-2.31l9.523-12.169C98.611,8.38,98.17,4.75,95.657,2.784z M59.685,66.125H19.929   c-5.466,0-9.897-4.432-9.897-9.897c0-5.466,4.431-9.897,9.897-9.897h39.756c5.466,0,9.896,4.431,9.896,9.897   C69.581,61.693,65.15,66.125,59.685,66.125z"/></g></svg>